<mxfile host="app.diagrams.net" agent="Mozilla/5.0 (X11; Linux x86_64; rv:141.0) Gecko/20100101 Firefox/141.0" version="28.1.0">
  <diagram name="Page-1" id="993721oF8sEid20KIf30">
    <mxGraphModel dx="1132" dy="660" grid="1" gridSize="10" guides="1" tooltips="1" connect="1" arrows="1" fold="1" page="1" pageScale="1" pageWidth="850" pageHeight="1100" math="0" shadow="0">
      <root>
        <mxCell id="0" />
        <mxCell id="1" parent="0" />
        <mxCell id="jJN6GKUzldeKUMCvfwFQ-3" value="" style="edgeStyle=orthogonalEdgeStyle;rounded=0;orthogonalLoop=1;jettySize=auto;html=1;" edge="1" parent="1" source="jJN6GKUzldeKUMCvfwFQ-1" target="jJN6GKUzldeKUMCvfwFQ-2">
          <mxGeometry relative="1" as="geometry" />
        </mxCell>
        <mxCell id="jJN6GKUzldeKUMCvfwFQ-11" value="" style="edgeStyle=orthogonalEdgeStyle;rounded=0;orthogonalLoop=1;jettySize=auto;html=1;" edge="1" parent="1" source="jJN6GKUzldeKUMCvfwFQ-1" target="jJN6GKUzldeKUMCvfwFQ-10">
          <mxGeometry relative="1" as="geometry">
            <Array as="points">
              <mxPoint x="80" y="490" />
            </Array>
          </mxGeometry>
        </mxCell>
        <mxCell id="jJN6GKUzldeKUMCvfwFQ-1" value="&lt;font face=&quot;Garamond&quot; style=&quot;font-size: 13px;&quot;&gt;Người dùng&lt;/font&gt;" style="rounded=0;whiteSpace=wrap;html=1;" vertex="1" parent="1">
          <mxGeometry x="20" y="350" width="120" height="60" as="geometry" />
        </mxCell>
        <mxCell id="jJN6GKUzldeKUMCvfwFQ-5" value="" style="edgeStyle=orthogonalEdgeStyle;rounded=0;orthogonalLoop=1;jettySize=auto;html=1;" edge="1" parent="1" source="jJN6GKUzldeKUMCvfwFQ-2" target="jJN6GKUzldeKUMCvfwFQ-4">
          <mxGeometry relative="1" as="geometry" />
        </mxCell>
        <mxCell id="jJN6GKUzldeKUMCvfwFQ-2" value="&lt;font style=&quot;font-size: 13px;&quot;&gt;Xử lý ảnh cơ bản&lt;/font&gt;" style="whiteSpace=wrap;html=1;rounded=0;" vertex="1" parent="1">
          <mxGeometry x="220" y="350" width="120" height="60" as="geometry" />
        </mxCell>
        <mxCell id="jJN6GKUzldeKUMCvfwFQ-7" value="" style="edgeStyle=orthogonalEdgeStyle;rounded=0;orthogonalLoop=1;jettySize=auto;html=1;" edge="1" parent="1" source="jJN6GKUzldeKUMCvfwFQ-4" target="jJN6GKUzldeKUMCvfwFQ-6">
          <mxGeometry relative="1" as="geometry" />
        </mxCell>
        <mxCell id="jJN6GKUzldeKUMCvfwFQ-4" value="&lt;font style=&quot;font-size: 13px;&quot;&gt;Phân tích ảnh&lt;/font&gt;" style="rounded=0;whiteSpace=wrap;html=1;" vertex="1" parent="1">
          <mxGeometry x="420" y="350" width="120" height="60" as="geometry" />
        </mxCell>
        <mxCell id="jJN6GKUzldeKUMCvfwFQ-9" value="" style="edgeStyle=orthogonalEdgeStyle;rounded=0;orthogonalLoop=1;jettySize=auto;html=1;" edge="1" parent="1" source="jJN6GKUzldeKUMCvfwFQ-6" target="jJN6GKUzldeKUMCvfwFQ-8">
          <mxGeometry relative="1" as="geometry" />
        </mxCell>
        <mxCell id="jJN6GKUzldeKUMCvfwFQ-6" value="&lt;font style=&quot;font-size: 13px;&quot;&gt;Tra cứu thông tin&lt;/font&gt;" style="rounded=0;whiteSpace=wrap;html=1;" vertex="1" parent="1">
          <mxGeometry x="620" y="350" width="120" height="60" as="geometry" />
        </mxCell>
        <mxCell id="jJN6GKUzldeKUMCvfwFQ-8" value="&lt;font style=&quot;font-size: 13px;&quot;&gt;Lưu trữ thông tin&lt;/font&gt;" style="whiteSpace=wrap;html=1;rounded=0;" vertex="1" parent="1">
          <mxGeometry x="820" y="350" width="120" height="60" as="geometry" />
        </mxCell>
        <mxCell id="jJN6GKUzldeKUMCvfwFQ-10" value="&lt;font style=&quot;font-size: 13px;&quot;&gt;Tùy chỉnh giao diện/ngôn ngữ&lt;/font&gt;" style="rounded=0;whiteSpace=wrap;html=1;" vertex="1" parent="1">
          <mxGeometry x="220" y="460" width="120" height="60" as="geometry" />
        </mxCell>
      </root>
    </mxGraphModel>
  </diagram>
</mxfile>
